<svg width="114" height="21" viewBox="0 0 114 21" fill="none" xmlns="http://www.w3.org/2000/svg">
<g clip-path="url(#clip0_19282_1045)">
<path fill-rule="evenodd" clip-rule="evenodd" d="M106.386 3.91768C108.417 3.91768 110.545 4.37097 112.028 4.95376V0.971326C110.512 0.485663 108.417 0 105.677 0C100.486 0 96.9724 1.94265 96.9724 5.98984C96.9724 12.9834 106.998 11.5588 106.998 14.7965C106.998 16.0593 105.806 16.7716 103.452 16.7716C101.325 16.7716 98.8422 16.7068 96.9079 15.8002V19.7503C98.8422 20.4302 101.647 20.7216 103.775 20.7216C109.158 20.7216 113.059 19.1027 113.059 14.1166C113.059 7.44683 102.969 9.38948 102.969 5.43942C102.936 3.95006 104.548 3.91768 106.386 3.91768ZM85.2055 15.3146H83.4002V20.7216H77.1137V0C77.2427 0 82.1106 0.0971326 84.3028 0C90.7827 0.0971326 95.1026 2.16929 95.1026 7.22019C95.1026 13.1129 90.8794 15.3146 85.2055 15.3146ZM84.3351 3.59391C84.0127 3.59391 83.787 3.59391 83.4324 3.59391V11.6883H84.3351C87.4944 11.6883 88.8162 10.717 88.8162 7.18781C88.8162 5.01852 87.3332 3.62628 84.3351 3.59391ZM67.2811 0H73.5675V20.7216H67.2811V0ZM52.0324 20.7216V0H58.3188V16.2211H64.6053L63.7026 20.7216H52.0324ZM42.1675 0H48.454V20.7216H42.1675V0ZM32.3026 12.6272H26.0162V20.7216H19.7298V0H26.0162V8.09438H32.3026V0H38.5891V20.7216H32.3026V12.6272ZM8.05954 15.3146H6.2542V20.7216H0V0C0.128953 0 4.99692 0.0971326 7.18911 0C13.669 0.0971326 17.9567 2.16929 17.9567 7.22019C17.9567 13.1129 13.7335 15.3146 8.05954 15.3146ZM7.18911 3.59391C6.86673 3.59391 6.64106 3.59391 6.28644 3.59391V11.6883H7.18911C10.3485 11.6883 11.6702 10.717 11.6702 7.18781C11.6702 5.01852 10.1873 3.62628 7.18911 3.59391Z" fill="white"/>
</g>
<defs>
<clipPath id="clip0_19282_1045">
<rect width="113.027" height="20.7216" fill="white"/>
</clipPath>
</defs>
</svg>
